<svg version="1.0" width="104.08" height="75" xmlns="http://www.w3.org/2000/svg" viewBox="0 0 906 1525"><path d="M604.8 2.5C545.5 10 485 37.6 428.5 83.1c-74 59.6-134.4 145.6-162.9 232.1-5.2 16-12.9 46.2-15 59.6-6.7 41.1-3.9 104.1 8 185.7 13.6 92.4 36.5 199 88.4 410.5 41.9 170.7 58.9 249.1 59.3 272.8l.2 8.3-3.7 3.5c-3.9 3.5-8.9 4.5-12.6 2.5-.9-.5-66.5-71.4-145.7-157.5-79.2-86.1-144.1-156.2-144.2-155.8-1.5 5-99.3 392.5-99.3 393.1 0 1.6 136 133.6 143.1 139 31.8 24 66.5 38.8 104.9 44.7 17.1 2.7 48.8 2.4 67.9-.5 89.8-13.7 182.4-74.9 252.8-167.1 32.7-42.9 60.6-95.5 75.8-143 7.6-23.7 13.7-52.2 15.5-72.9 1.6-17.2.8-72.2-1.4-96.1-10-107.9-31-220-91.6-488.1-34.7-153.3-45.9-207.5-53-256.2l-3-20.2 2.3-4.5c2.9-6 8.1-8.7 13.2-7 2.9.9 26.8 28.3 139.1 158.6C741.1 511.2 802.5 582 802.8 582c.4 0 23.7-90.8 51.8-201.8l51.2-201.7-64.3-64.1-64.2-64.1-14.4-9.6c-29.4-19.6-57.2-30.9-90.4-36.8-15.4-2.7-51.5-3.5-67.7-1.4z" fill="#ff324b"/></svg>
