<?xml version="1.0" encoding="utf-8"?>
<!-- Generator: Adobe Illustrator 23.1.0, SVG Export Plug-In . SVG Version: 6.00 Build 0)  -->
<svg version="1.1" id="Capa_1" xmlns="http://www.w3.org/2000/svg" xmlns:xlink="http://www.w3.org/1999/xlink" x="0px" y="0px"
	 viewBox="0 0 595.3 595.3" enable-background="new 0 0 595.3 595.3" xml:space="preserve">
<circle cx="455.2" cy="47.1" r="19"/>
<path fill="none" stroke="#FFFFFF" stroke-width="3" stroke-miterlimit="10" d="M437.8,42c0,0,4.1-0.2,6.4,5.1c0,0,3.3,12,15,8.5
	c0,0,10.7-4.1,2.9-17.3c0,0-2.1-2.9-1.2-5l1.1-3.1"/>
<path d="M166.2,186.3c-5.1,6.4-4.6,15.8,1.5,21.6l54.9,52.6c3.9,3.7,9.5,5.7,15.3,4.8l2.5-0.4l54.5-8.4l15.3,112.8l-39.8,166.3
	c-2.1,11.1,4.1,22.3,15,26.3c12.1,4.4,25.6-1.8,30-14l56.4-138l22,46.6L378,536.3c-2.5,12.9,7.8,23.5,20.2,25.5
	c13.1,2.1,24.5-6.9,27.5-20l22.7-87.3c0.6-3.7,0.3-7.8-1.2-11.5l-0.8-2.1l-22.3-59.7L404,234.7l59.7-26.7l1.6-0.7
	c4.9-2.2,8.9-6.3,10.8-11.8l21.2-59.5c3.4-9.7-1.1-20.7-10.6-25c-10.1-4.6-22-0.1-26.5,10l-21.7,48c0,0-53.1,21.6-62.5,24.6
	c-18.1,5.9-39.7,4-72.9,12.9l-63,15.5L196,189c-7.5-5.2-13.1-7.2-17.1-7.8"/>
<path d="M287.8,128.4c-3.1,26.1,15.6,49.6,41.6,52.7c26,3,49.6-15.6,52.7-41.7c3-26-15.6-49.6-41.7-52.7
	C314.4,83.7,290.8,102.4,287.8,128.4z"/>
<path d="M132.2,34.3c0,0-62.9,12.1-31,68.6c0,0,13.5,20.2,35.8,36.2c0,0,19.8,18,20.6,19c0,0,3.5,2.1,7.2,20.8l5,22.9
	c0,0-0.6,10,2.4,10.3c0,0,4.6,0.6,8-0.3c3.4-0.9,7.1-3.8,7.1-3.8c2.4-1.8-3.1-10.1-3.1-10.1l-7.2-22.3c-5.8-18.6-4.2-21.6-4.2-21.6
	c0.3-1.9,8.2-26.8,8.2-26.8c11.4-25,12.7-49.3,12.7-49.3C192.6,13,132.2,34.3,132.2,34.3z M112.3,78.4c1.1-2.1,4.1-2.9,6.2-1.7
	c2.1,1.2,2.9,4.1,1.7,6.1c-1.2,2-4.2,2.8-6.2,1.5C111.9,83.3,111.2,80.5,112.3,78.4z M123.6,96.2c-1.3,2.1-3.9,2.8-5.9,1.7
	c-2-1.1-2.8-4.1-1.7-6.2c1.2-2.1,4-2.8,6.1-1.6C124.3,91.4,124.9,94,123.6,96.2z M148.5,54.4c1.2-2.1,4-2.8,6.2-1.5
	c2.1,1.3,2.8,4,1.5,6.1c-1.2,2-4,2.7-6,1.6C148.2,59.4,147.4,56.4,148.5,54.4z M152.1,67.7c1.2-2,4-2.8,6-1.7c2.1,1.1,2.9,4,1.7,6.1
	s-3.8,2.8-5.9,1.6C151.7,72.5,150.9,69.8,152.1,67.7z M159.3,94.1c1.2-2.2,3.8-3,6-1.8c2.1,1.2,2.9,4,1.7,6.1c-1.2,2-3.9,2.8-6,1.7
	C158.8,98.9,158,96.3,159.3,94.1z M155.8,80.8c1.2-2,4-2.7,6-1.6s2.8,4.2,1.6,6.2c-1.3,2.1-4,2.8-6.1,1.5
	C155.2,85.7,154.5,82.9,155.8,80.8z M135.4,57.9c1.2-2,4-2.7,6-1.6c2.2,1.2,2.8,3.9,1.6,6.1c-1.3,2.1-3.8,2.8-5.9,1.5
	C134.8,62.7,134.1,60.1,135.4,57.9z M146.6,75.6c-1.3,2.2-3.9,2.9-6.1,1.7c-2.1-1.2-2.9-4.1-1.7-6.1c1.1-1.9,4.1-2.7,6.1-1.7
	C147,70.6,147.8,73.5,146.6,75.6z M142.4,84.6c1.1-2.1,4.1-2.9,6.1-1.7c2.1,1.2,2.8,4.1,1.6,6.2s-3.8,2.8-5.9,1.6
	C142,89.4,141.2,86.7,142.4,84.6z M153.7,102.3c-1.2,2-4.2,2.7-6.2,1.5c-2.1-1.3-2.7-4.1-1.4-6.2c1.3-2,4-2.7,6-1.5
	C154.2,97.4,155,100.3,153.7,102.3z M122,61.5c1.1-2,4.2-2.8,6.2-1.7c1.9,1.1,2.7,4,1.6,6c-1.2,2.1-3.9,2.9-6.1,1.7
	C121.6,66.4,120.8,63.6,122,61.5z M125.6,74.9c1.2-2.1,4.1-2.9,6.1-1.8c2.1,1.2,2.8,3.9,1.6,6.1c-1.3,2.2-3.9,2.9-6.1,1.6
	C125.2,79.6,124.4,77,125.6,74.9z M132.7,101.4c1.2-2.2,3.9-2.9,6.1-1.7c2.2,1.2,2.9,3.9,1.7,6.1c-1.2,2.1-4.1,2.8-6.2,1.6
	C132.4,106.2,131.6,103.4,132.7,101.4z M129.2,88c1.2-2,4-2.7,6-1.6c2.2,1.2,3,3.9,1.7,6.1c-1.2,2.2-3.9,3-6.1,1.7
	C128.8,93,128,90,129.2,88z M170.6,126.2c-2.6,6.1-5.6,12-6.3,18.6c-0.1,0.7-1.9,1.3-1.9,1.3s-2.3,0.7-2.8-0.2
	c-4.3-7.1-12.2-11-18.5-16.3c-1.3-1.1-2.7-2.1-4.1-3.6c15.6,2.1,24.9-0.3,37.3-9.6C173.6,120.1,171.9,123.1,170.6,126.2z
	 M176.8,81.8c-1.2,2.1-4,2.8-6.1,1.5c-2.2-1.3-2.9-3.8-1.5-6c1.2-2,3.9-2.8,5.9-1.6C177.1,76.8,177.9,79.8,176.8,81.8z M173.1,68.6
	c-1.2,2-4,2.8-6,1.7c-2.1-1.1-2.9-4-1.7-6.1c1.2-2.2,4-2.9,6.1-1.7C173.6,63.7,174.3,66.5,173.1,68.6z"/>
<path fill="none" stroke="#000000" stroke-width="4" stroke-linejoin="round" stroke-miterlimit="10" d="M172.6,154
	c0,0-1.6,2.9,4.2,21.6l7.2,22.3c0,0,5.5,8.4,3.1,10.1c0,0-3.7,2.9-7.1,3.8c-3.4,0.9-8,0.3-8,0.3c-2.9-0.3-2.4-10.3-2.4-10.3l-5-22.9
	c-3.8-18.6-7.2-20.8-7.2-20.8s3.3,0.8,8-0.5C165.5,157.6,171.4,155.8,172.6,154z"/>
<g>
	<path d="M177.2,201c1.3-0.3,2.6-0.7,3.8-1.3c0.6-0.3,1-0.8,1.6-1c0.5-0.3,1.1-0.6,1.8-1l0,0h0.1l0,0c0,0.8-0.4,1.5-1,2.1
		s-1.3,0.8-2,1c-1.4,0.4-2.8,0.5-4.2,0.4C177.2,201.2,177.1,201.1,177.2,201C177.1,201.1,177.2,201,177.2,201L177.2,201z"/>
</g>
</svg>
